<?xml version="1.0" standalone="no"?>
<!DOCTYPE svg PUBLIC "-//W3C//DTD SVG 20010904//EN"
        "http://www.w3.org/TR/2001/REC-SVG-20010904/DTD/svg10.dtd">
<svg version="1.0" xmlns="http://www.w3.org/2000/svg"
     width="2400.000000pt" height="2400.000000pt" viewBox="0 0 2400.000000 2400.000000"
     preserveAspectRatio="xMidYMid meet">

    <g transform="translate(0.000000,2400.000000) scale(0.100000,-0.100000)"
       fill="#000000" stroke="none">
        <path d="M11498 19734 c-17 -9 -29 -10 -33 -4 -7 12 -82 14 -88 3 -6 -10 -86
-8 -110 2 -14 6 -20 2 -24 -14 -4 -16 -10 -20 -22 -15 -44 18 -61 17 -61 -6 0
-22 -2 -23 -73 -17 -50 3 -83 1 -106 -9 -24 -10 -38 -11 -53 -3 -27 15 -52 3
-45 -21 6 -23 -4 -26 -91 -33 -39 -3 -55 -1 -59 9 -6 16 -59 19 -68 4 -3 -5
-18 -10 -32 -10 -27 0 -90 -34 -109 -59 -9 -12 -21 -12 -77 -1 -64 12 -107 8
-107 -11 0 -5 -11 -7 -25 -3 -38 9 -75 -3 -75 -25 0 -28 -63 -48 -95 -31 -19
10 -32 9 -72 -5 -26 -9 -54 -19 -62 -21 -10 -3 -11 -7 -1 -19 20 -24 -17 -31
-55 -11 -26 14 -36 15 -58 5 -15 -7 -27 -16 -27 -20 0 -4 -17 -13 -37 -20 -40
-14 -47 -15 -105 -17 -32 -2 -38 -6 -38 -23 0 -19 -4 -21 -35 -16 -24 4 -40 1
-50 -10 -10 -10 -24 -13 -40 -9 -16 4 -25 2 -25 -5 0 -29 -70 -53 -85 -29 -11
17 -35 11 -61 -15 -19 -19 -31 -23 -54 -18 -22 4 -31 1 -36 -11 -7 -19 -89
-57 -108 -50 -7 3 -18 -2 -25 -10 -8 -10 -23 -13 -45 -9 -28 4 -39 0 -69 -31
-27 -26 -45 -36 -68 -36 -30 0 -71 -10 -126 -31 -13 -5 -23 -17 -23 -27 0 -27
-10 -33 -32 -21 -16 9 -19 7 -16 -7 2 -11 -5 -20 -19 -23 -13 -3 -32 -15 -45
-25 -18 -15 -27 -17 -49 -9 -22 9 -36 6 -75 -14 -27 -13 -57 -34 -68 -46 -10
-12 -31 -22 -48 -23 -41 -2 -53 -16 -37 -42 18 -29 0 -42 -18 -14 -9 12 -19
22 -24 22 -4 0 -9 -10 -11 -22 -2 -17 -10 -23 -28 -23 -14 0 -41 -11 -60 -23
-19 -12 -43 -22 -52 -22 -10 0 -18 -4 -18 -10 0 -5 -6 -10 -13 -10 -8 0 -22
-9 -32 -20 -10 -11 -22 -20 -27 -20 -13 0 -68 -42 -68 -52 0 -5 -22 -32 -49
-59 -45 -46 -50 -48 -65 -33 -15 14 -19 15 -34 2 -9 -8 -25 -18 -34 -21 -23
-8 -23 -29 -1 -25 21 4 29 -27 13 -47 -16 -20 -70 -46 -70 -34 0 5 5 9 10 9 6
0 10 9 10 20 0 15 -7 20 -25 20 -24 0 -51 -31 -38 -44 3 -3 -3 -6 -14 -6 -27
0 -57 -35 -58 -68 0 -24 -3 -27 -31 -24 -35 3 -73 -23 -78 -52 -1 -11 -17 -23
-42 -32 -21 -7 -44 -21 -51 -31 -7 -10 -28 -36 -48 -57 -19 -21 -35 -45 -35
-52 0 -7 -11 -21 -25 -30 -14 -9 -25 -22 -25 -29 0 -21 -31 -47 -48 -40 -17 6
-52 -21 -52 -41 0 -7 -12 -19 -27 -26 -16 -7 -29 -23 -31 -35 -2 -12 -10 -27
-18 -33 -8 -7 -14 -21 -14 -31 0 -11 -11 -25 -26 -31 -30 -14 -124 -97 -124
-110 0 -5 4 -7 9 -3 20 12 22 -17 2 -34 -12 -10 -21 -25 -21 -32 0 -8 -14 -20
-32 -28 -30 -14 -77 -58 -78 -73 0 -4 -15 -29 -32 -55 -18 -26 -37 -70 -43
-97 -6 -30 -17 -53 -29 -60 -36 -20 -55 -39 -49 -49 3 -5 -12 -27 -33 -48 -30
-31 -36 -42 -25 -48 18 -12 6 -47 -31 -89 -20 -24 -27 -40 -22 -54 4 -13 2
-18 -4 -14 -15 9 -42 -4 -42 -20 0 -7 6 -17 14 -21 9 -5 12 -18 9 -35 -6 -29
-23 -39 -23 -13 0 8 -3 15 -7 15 -10 0 -33 -49 -33 -70 0 -8 -9 -21 -20 -28
-15 -9 -20 -23 -20 -58 0 -37 -5 -50 -25 -66 -14 -11 -25 -24 -25 -30 0 -5
-11 -23 -25 -40 -26 -30 -33 -58 -15 -58 6 0 10 -5 10 -11 0 -6 -9 -8 -21 -4
-19 6 -21 4 -18 -37 4 -73 -10 -126 -35 -130 -24 -3 -38 -51 -24 -81 11 -22
-6 -87 -31 -119 -13 -15 -17 -33 -14 -51 4 -20 1 -27 -11 -27 -10 0 -16 -9
-16 -24 0 -14 -5 -28 -11 -31 -7 -5 -8 -31 -4 -79 6 -63 4 -76 -15 -109 -21
-35 -22 -42 -10 -80 6 -23 17 -51 22 -62 9 -15 7 -22 -11 -33 -11 -8 -21 -23
-21 -33 0 -10 -5 -21 -11 -25 -6 -3 -9 -17 -6 -30 2 -14 0 -27 -4 -30 -5 -3
-7 -15 -3 -28 3 -12 -4 -52 -15 -87 -23 -74 -35 -214 -38 -419 -1 -80 -2 -154
-3 -165 -5 -57 9 -254 19 -274 10 -18 10 -30 -2 -60 -9 -21 -12 -43 -7 -50 4
-8 8 -35 8 -61 0 -26 5 -56 11 -68 6 -11 11 -47 11 -79 0 -33 9 -82 20 -112
14 -40 17 -59 9 -73 -8 -14 -7 -24 3 -35 7 -9 14 -40 15 -69 1 -29 9 -69 18
-89 8 -21 15 -51 15 -67 0 -16 7 -39 15 -52 9 -13 18 -48 22 -77 7 -58 28
-119 41 -119 5 0 8 -19 8 -42 -1 -35 3 -45 22 -53 17 -8 22 -18 22 -50 0 -39
16 -95 34 -125 6 -8 9 -28 8 -46 -2 -18 4 -37 13 -44 8 -7 15 -18 15 -24 0 -6
14 -38 30 -71 16 -33 30 -64 30 -70 0 -5 14 -30 30 -54 17 -24 30 -51 30 -59
0 -8 11 -25 25 -38 16 -15 25 -34 25 -53 0 -21 9 -39 29 -57 16 -14 31 -38 34
-54 4 -16 20 -44 37 -63 16 -19 37 -51 45 -70 8 -20 19 -38 25 -42 5 -3 10
-15 10 -26 0 -10 9 -27 21 -37 20 -16 54 -63 92 -126 11 -16 24 -35 31 -41 7
-5 23 -28 37 -50 23 -36 25 -49 23 -130 -1 -49 -5 -104 -9 -122 -7 -31 -7 -31
-64 -28 -31 2 -74 9 -96 15 -93 27 -190 41 -213 30 -13 -6 -29 -7 -35 -3 -18
11 -82 6 -108 -8 -13 -7 -51 -15 -84 -16 -47 -1 -63 -6 -76 -22 -19 -23 -58
-28 -78 -8 -10 10 -18 5 -41 -21 -25 -30 -30 -32 -48 -21 -17 11 -24 11 -39
-2 -10 -8 -39 -25 -65 -38 -26 -12 -50 -26 -53 -32 -4 -5 -15 -9 -25 -9 -12 0
-31 -16 -46 -40 -15 -22 -33 -40 -41 -40 -22 0 -93 -63 -93 -82 0 -11 -8 -18
-19 -18 -26 0 -61 -46 -61 -80 0 -30 -23 -56 -40 -45 -6 3 -18 -12 -29 -37
-10 -24 -26 -49 -35 -57 -9 -7 -16 -26 -16 -41 0 -15 -9 -35 -20 -45 -11 -10
-18 -21 -15 -25 2 -4 -2 -16 -10 -26 -8 -10 -15 -30 -15 -42 0 -13 -9 -37 -21
-53 -11 -16 -21 -43 -23 -61 -1 -18 -10 -50 -19 -72 -9 -21 -17 -56 -17 -77 0
-21 -4 -41 -10 -44 -5 -3 -10 -22 -10 -41 0 -20 -5 -45 -11 -56 -8 -15 -8 -27
2 -44 10 -19 10 -27 1 -36 -16 -16 -16 -182 0 -208 10 -16 10 -24 0 -40 -15
-24 -16 -40 -2 -40 6 0 10 9 10 20 0 11 5 20 10 20 19 0 11 -59 -10 -70 -15
-8 -18 -15 -12 -28 5 -9 10 -43 10 -75 1 -32 9 -79 18 -105 10 -26 20 -67 23
-92 5 -36 11 -47 34 -58 28 -14 34 -26 17 -37 -5 -3 -10 -17 -10 -30 0 -13 5
-27 10 -30 6 -3 10 -16 10 -28 0 -12 7 -31 15 -41 8 -11 15 -27 15 -37 0 -9 7
-22 15 -29 8 -7 15 -21 15 -31 0 -20 47 -111 114 -222 22 -38 51 -85 63 -105
12 -21 35 -49 51 -63 17 -15 34 -35 40 -45 27 -50 330 -354 352 -354 9 0 36
-20 60 -45 24 -25 48 -45 52 -45 5 0 21 -8 36 -18 83 -57 173 -112 182 -112 6
0 21 -7 34 -15 13 -9 41 -15 62 -15 60 0 68 0 84 -2 8 -1 30 2 47 6 29 7 33
12 32 40 -1 17 2 57 6 89 5 37 4 57 -3 57 -5 0 -15 13 -21 30 -7 22 -16 30
-34 30 -30 0 -110 40 -142 71 -41 40 -63 57 -102 82 -21 13 -56 42 -78 64 -22
22 -48 42 -57 46 -10 3 -18 13 -18 20 0 25 -82 97 -110 97 -22 0 -28 6 -37 43
-8 28 -29 60 -62 95 -28 29 -51 57 -51 63 0 5 -16 26 -35 48 -19 21 -35 46
-35 56 0 9 -13 34 -29 54 -15 20 -31 47 -35 61 -10 35 -27 71 -48 99 -10 13
-18 35 -18 49 0 42 -22 103 -42 113 -15 8 -18 22 -18 74 0 45 -6 74 -19 97
-14 24 -20 52 -20 103 0 39 -4 102 -10 140 -14 90 -14 225 -1 225 6 0 10 12
10 26 0 14 4 33 9 42 5 9 12 50 15 91 4 48 13 82 25 100 11 15 22 45 26 66 4
22 22 67 39 100 18 33 40 81 49 106 10 26 28 51 41 59 13 7 26 25 30 41 5 27
66 79 92 79 7 0 14 7 18 15 3 8 13 15 23 15 10 0 32 14 50 30 18 17 40 30 51
30 10 0 27 9 37 20 11 12 25 18 36 15 9 -3 20 -1 24 4 3 6 16 10 28 10 12 0
49 7 82 16 54 14 123 23 209 25 16 0 34 -7 40 -16 10 -13 17 -14 34 -5 29 16
74 14 100 -4 15 -11 33 -14 56 -9 50 9 54 2 43 -62 -8 -49 -7 -63 8 -91 13
-24 16 -39 9 -56 -11 -25 -11 -510 -1 -572 4 -22 10 -87 13 -145 9 -177 20
-300 28 -308 4 -3 -1 -16 -10 -30 -13 -20 -14 -29 -4 -50 6 -14 13 -64 16
-110 2 -46 6 -88 9 -93 9 -14 16 -105 15 -184 -1 -42 5 -88 15 -115 9 -25 18
-78 20 -118 2 -48 9 -77 19 -88 19 -18 19 -17 5 -47 -9 -19 -7 -31 5 -55 9
-17 13 -38 10 -47 -4 -9 1 -24 11 -35 11 -12 15 -28 11 -42 -6 -26 10 -139 27
-183 6 -16 10 -36 9 -42 -2 -7 4 -26 13 -42 8 -17 15 -47 15 -68 0 -21 7 -46
15 -57 8 -10 12 -30 9 -45 -3 -15 5 -54 20 -93 14 -36 30 -101 35 -143 5 -41
14 -81 19 -88 5 -7 19 -46 31 -87 11 -41 29 -86 40 -100 12 -17 17 -36 13 -58
-3 -23 1 -39 13 -52 10 -11 19 -32 21 -48 4 -47 16 -86 35 -114 11 -14 19 -31
19 -38 0 -18 32 -114 41 -124 5 -6 9 -20 9 -32 0 -13 5 -26 10 -29 6 -3 10
-13 10 -22 0 -9 8 -25 17 -35 9 -10 20 -44 24 -75 5 -34 14 -60 23 -65 9 -5
16 -16 16 -24 0 -8 11 -32 25 -52 14 -20 25 -44 25 -52 0 -9 9 -35 20 -58 11
-22 20 -47 20 -55 0 -8 17 -39 37 -68 20 -30 43 -76 50 -103 7 -27 19 -56 27
-65 7 -9 17 -27 21 -41 4 -14 13 -32 20 -40 7 -8 20 -31 30 -50 10 -18 24 -40
31 -48 8 -7 14 -18 14 -24 0 -5 8 -22 18 -36 10 -15 25 -43 32 -62 7 -19 25
-48 40 -65 15 -16 31 -41 35 -55 4 -14 16 -36 26 -49 11 -13 19 -29 19 -35 0
-6 22 -42 50 -81 27 -38 59 -88 71 -110 12 -22 28 -44 35 -48 8 -4 14 -16 14
-26 0 -9 13 -30 30 -46 16 -16 30 -34 30 -40 0 -6 16 -29 36 -50 20 -22 44
-56 55 -76 10 -21 29 -45 41 -56 13 -10 32 -36 43 -57 10 -21 41 -57 67 -81
26 -24 48 -46 48 -50 0 -4 8 -17 18 -30 9 -12 24 -33 32 -45 34 -50 52 -70 60
-65 5 3 16 -8 25 -25 8 -16 51 -66 95 -111 44 -44 80 -85 80 -89 0 -5 16 -18
35 -30 19 -12 35 -28 35 -36 0 -8 3 -14 8 -14 11 -1 112 -96 112 -107 0 -5 16
-16 35 -23 24 -9 43 -28 58 -54 16 -28 38 -48 81 -70 41 -21 63 -40 70 -58 6
-16 15 -28 21 -28 6 0 24 -14 40 -30 16 -17 34 -30 42 -30 7 0 17 -9 23 -20 6
-12 21 -20 35 -20 14 0 25 -6 25 -13 0 -18 33 -47 53 -47 9 0 26 -13 39 -30
12 -16 30 -30 39 -30 10 0 26 -10 36 -23 10 -12 33 -29 52 -37 18 -7 47 -26
63 -41 17 -14 42 -33 56 -40 15 -8 37 -24 49 -36 12 -13 31 -23 43 -23 11 0
29 -9 40 -20 11 -11 28 -20 39 -20 10 0 24 -7 32 -16 7 -8 26 -22 43 -31 17
-9 44 -26 59 -39 18 -15 41 -24 62 -24 21 0 44 -9 63 -25 17 -14 36 -25 45
-25 8 0 25 -11 38 -24 13 -13 42 -29 64 -37 22 -7 47 -19 56 -26 8 -7 25 -13
37 -13 11 0 24 -4 27 -10 3 -5 14 -10 24 -10 9 0 36 -9 59 -20 22 -11 48 -20
56 -20 9 0 31 -9 51 -20 19 -11 36 -19 38 -18 4 3 82 -25 93 -33 6 -5 33 -12
60 -14 68 -7 104 -15 104 -25 0 -9 48 -24 71 -21 9 1 22 -5 29 -14 7 -8 24
-15 38 -15 14 0 39 -4 56 -10 66 -21 163 -43 206 -47 25 -2 54 -8 65 -13 11
-5 49 -12 85 -15 36 -3 108 -10 160 -16 86 -9 161 -12 223 -9 34 1 108 2 147
2 144 -2 175 0 178 8 2 6 9 7 15 3 7 -4 33 -8 59 -10 37 -2 48 1 48 12 0 8 5
15 10 15 6 0 10 -4 10 -9 0 -8 47 -7 148 2 24 3 49 10 55 16 14 14 70 14 84 0
14 -14 33 -3 33 20 0 25 11 33 28 19 21 -18 82 -20 82 -3 0 18 19 30 31 18 11
-11 139 6 139 18 0 4 15 5 33 2 23 -3 37 0 46 11 7 9 28 16 45 16 17 1 49 7
71 15 22 8 50 15 62 15 12 0 27 9 33 21 7 11 18 18 25 15 7 -2 46 5 87 18 59
18 74 26 76 44 4 26 15 28 32 7 16 -19 39 -19 46 0 3 8 14 17 25 20 10 4 19
13 19 21 0 10 13 14 45 14 46 0 82 12 127 43 16 10 32 16 38 12 5 -3 32 6 61
20 38 20 49 29 40 38 -14 14 -14 27 -1 27 6 0 10 -7 10 -15 0 -8 8 -15 18 -15
23 0 64 29 57 40 -3 5 -3 20 1 34 4 19 11 24 32 22 14 -2 28 -8 30 -15 5 -16
42 -14 48 4 4 8 35 28 70 45 37 17 62 35 60 42 -1 7 -1 10 1 7 4 -7 64 21 86
39 7 6 14 10 17 10 18 1 60 25 88 51 18 17 37 31 42 31 5 0 25 14 43 30 19 17
39 30 44 30 5 0 19 14 32 30 12 17 26 28 31 25 5 -3 18 3 30 15 11 11 26 20
33 20 7 0 28 15 46 34 25 25 31 39 26 55 -5 15 -2 21 9 21 9 0 16 -7 16 -16 0
-24 24 -11 30 17 3 13 14 25 25 27 11 2 36 23 55 48 19 24 43 44 53 44 22 0
87 50 87 68 0 6 8 12 18 12 23 0 72 50 72 74 0 10 9 20 20 23 11 3 20 9 20 14
0 5 5 9 11 9 14 0 220 208 237 239 6 13 12 30 12 38 0 8 15 20 33 28 47 20 82
61 79 93 -2 19 0 23 6 13 13 -19 45 0 70 41 12 18 34 46 51 62 17 17 31 39 31
50 0 12 22 42 54 71 34 32 54 58 53 70 -1 12 7 24 20 30 30 13 37 34 18 55
-15 16 -14 19 0 34 9 9 22 16 28 16 16 0 130 121 146 155 7 17 17 38 22 47 5
10 9 27 9 38 0 13 7 20 18 20 18 0 52 29 52 43 0 4 17 35 38 69 21 35 43 74
50 88 25 47 47 85 68 115 12 17 24 47 28 68 4 22 13 37 21 37 20 0 50 68 50
114 0 34 3 40 22 41 29 2 34 7 35 36 0 47 8 68 28 74 11 3 20 15 20 25 0 10 4
22 10 25 5 3 7 19 4 34 -5 23 -2 30 15 36 27 8 27 25 1 32 -24 6 -27 23 -5 23
30 0 85 64 85 98 0 29 8 55 33 109 5 12 7 37 3 56 -6 31 -4 35 24 47 16 7 30
19 30 26 0 8 9 23 20 34 24 24 25 29 3 46 -17 12 -16 16 10 68 15 30 37 58 47
61 13 4 20 15 20 33 0 15 11 50 25 77 25 51 33 105 15 105 -5 0 -10 5 -10 10
0 6 11 10 25 10 18 0 25 5 25 20 0 11 5 20 10 20 6 0 10 11 10 25 0 13 4 34 9
47 21 52 24 66 25 138 l1 75 45 14 c25 8 49 20 53 28 4 7 16 13 26 13 21 0 71
22 71 33 0 4 5 7 11 7 12 0 103 60 107 72 2 4 10 8 18 8 18 0 72 31 129 74 25
20 50 36 55 36 7 0 128 95 239 187 18 15 42 33 51 38 10 6 54 44 99 85 46 41
86 76 91 78 13 5 223 219 234 240 10 17 65 91 76 102 14 14 50 70 50 78 0 5
13 26 30 47 16 21 30 45 30 54 0 9 9 27 20 41 11 14 20 29 20 33 0 5 14 28 30
52 17 24 30 48 30 54 0 6 4 19 9 29 15 27 37 81 64 152 44 119 49 135 56 177
4 23 13 49 21 57 7 9 10 26 7 38 -3 11 -2 29 3 39 5 9 12 32 14 50 3 19 10 70
16 114 6 43 9 92 6 107 -3 15 -1 30 4 33 5 3 7 31 5 63 -3 31 -5 66 -4 77 4
77 -3 159 -15 196 -9 24 -16 73 -16 108 0 47 -5 72 -21 98 -12 18 -18 40 -15
48 15 41 -152 389 -200 418 -8 4 -14 16 -14 26 0 10 -9 30 -20 44 -11 14 -20
29 -20 33 0 4 -7 15 -16 25 -14 16 -14 20 0 47 9 17 20 34 26 37 5 3 10 12 10
19 0 23 77 179 123 250 9 14 17 35 17 46 0 11 7 23 15 26 8 4 15 11 15 18 0
18 38 89 54 101 7 6 21 25 30 43 9 18 24 36 32 39 7 3 14 13 14 24 0 10 18 36
40 58 22 22 40 44 40 51 0 6 21 32 46 58 25 26 52 61 60 77 30 61 47 90 63
108 9 11 41 61 71 111 85 143 112 184 153 232 20 25 37 51 37 58 0 7 11 23 25
36 14 13 25 34 25 47 0 15 9 27 24 34 23 11 56 66 56 94 0 8 9 20 21 27 19 13
59 88 59 113 0 7 11 29 25 49 14 20 25 42 25 48 0 6 7 19 16 29 13 14 13 21 3
40 -9 17 -9 24 0 27 22 7 41 34 41 57 0 13 5 27 10 30 6 3 10 16 10 29 0 12 5
27 12 34 19 19 40 85 39 119 -1 22 5 35 18 42 13 7 21 27 25 63 4 29 12 58 18
65 6 7 7 24 4 39 -4 14 -2 31 3 38 5 6 12 34 14 61 3 28 7 57 10 65 11 31 19
88 24 170 2 47 8 89 12 95 14 18 14 374 0 391 -9 11 -9 18 -1 26 15 15 16 74
2 83 -5 3 -10 43 -10 89 0 69 -3 87 -20 106 -23 26 -25 42 -9 72 11 21 -3 89
-23 113 -4 5 -8 21 -8 37 0 17 -7 31 -20 38 -16 9 -18 14 -8 35 8 19 8 28 -3
41 -7 9 -12 31 -11 50 2 19 -7 56 -19 84 -12 27 -19 56 -16 64 4 9 2 18 -3 21
-6 4 -10 17 -10 30 0 15 -7 26 -20 30 -15 5 -20 15 -20 41 0 19 -9 52 -20 74
-11 22 -20 45 -20 52 0 7 -9 19 -20 26 -14 8 -20 23 -20 46 0 31 -20 63 -32
51 -3 -3 -13 7 -23 22 -12 18 -14 28 -7 31 23 7 13 57 -15 79 -17 12 -33 38
-41 66 -8 25 -22 53 -33 63 -10 9 -19 28 -19 41 0 16 -8 27 -25 33 -14 5 -28
18 -31 27 -14 42 -35 81 -68 128 -20 27 -36 56 -36 63 0 7 -14 15 -30 19 -32
6 -51 32 -64 86 -4 15 -14 31 -23 34 -19 8 -62 53 -63 67 0 10 -58 81 -91 111
-12 11 -45 44 -73 74 -139 146 -233 231 -255 231 -6 0 -16 11 -23 24 -16 30
-106 96 -131 96 -9 0 -21 10 -26 23 -12 31 -29 43 -78 56 -26 7 -44 19 -48 31
-5 17 -33 33 -61 34 -6 1 -26 18 -46 39 -23 24 -44 37 -62 37 -15 0 -26 6 -26
14 0 13 -77 56 -127 70 -11 4 -24 13 -27 21 -3 8 -14 15 -25 15 -11 0 -23 5
-26 10 -3 6 -17 10 -30 10 -12 0 -25 6 -28 13 -3 8 -31 26 -64 41 -87 41 -93
43 -158 55 -43 8 -68 19 -91 42 -17 17 -40 30 -50 28 -27 -3 -74 11 -112 33
-32 20 -34 20 -53 2 -19 -17 -20 -17 -25 3 -6 23 -11 24 -119 43 -38 7 -86 18
-105 26 -36 13 -83 22 -160 29 -121 11 -167 19 -192 33 -21 13 -30 13 -42 3
-10 -9 -20 -9 -34 -2 -15 8 -394 26 -447 21 -11 -1 -180 -3 -210 -2 -29 0
-165 -6 -270 -13 -114 -7 -101 -7 -165 1 -30 4 -62 12 -70 20 -9 7 -26 11 -38
7 -18 -4 -24 0 -33 25 -6 17 -26 42 -44 56 -19 14 -37 35 -40 47 -4 12 -12 18
-21 15 -8 -3 -22 3 -31 12 -10 10 -31 24 -46 32 -16 8 -33 22 -38 32 -5 10
-20 18 -32 18 -15 0 -29 11 -40 30 -10 17 -24 30 -32 30 -8 0 -19 9 -25 20 -8
14 -17 19 -30 15 -11 -3 -24 1 -32 11 -38 46 -59 64 -78 64 -11 0 -23 7 -26
15 -4 8 -14 15 -23 15 -48 1 -131 48 -131 75 0 22 -29 40 -42 27 -16 -16 -31
-15 -25 1 8 21 -13 47 -37 47 -13 0 -26 7 -29 14 -3 8 -24 20 -45 26 -22 5
-43 17 -46 26 -3 8 -14 14 -23 13 -40 -4 -54 2 -63 27 -7 17 -15 24 -25 20
-18 -7 -95 25 -114 48 -7 9 -26 16 -41 16 -15 0 -35 9 -45 20 -10 11 -26 20
-37 20 -10 0 -18 5 -18 10 0 6 -8 10 -18 10 -9 0 -23 10 -30 21 -10 16 -17 18
-25 10 -18 -18 -44 -13 -50 9 -4 15 -14 20 -36 20 -19 0 -34 6 -37 15 -4 8
-15 15 -26 15 -10 0 -17 -4 -13 -9 3 -5 1 -12 -5 -16 -11 -7 -75 24 -66 32 9
10 -35 53 -54 53 -9 0 -21 5 -28 12 -9 9 -16 8 -30 -5 -21 -19 -42 -22 -42 -7
0 12 -83 52 -102 49 -17 -3 -104 36 -112 50 -11 16 -46 13 -46 -4 0 -22 -21
-18 -27 4 -6 23 -25 32 -43 21 -8 -5 -27 0 -47 11 -19 11 -53 19 -78 19 -24 0
-47 5 -50 10 -3 6 -17 10 -31 10 -13 0 -33 6 -44 12 -16 10 -25 9 -49 -5 -40
-23 -57 -21 -88 9 -24 24 -30 26 -57 16 -25 -10 -33 -9 -50 7 -22 20 -70 29
-98 17 -9 -4 -25 -3 -37 3 -11 6 -28 11 -38 11 -10 0 -24 9 -31 20 -7 11 -16
20 -21 20 -5 0 -11 -9 -14 -20 -3 -11 -10 -20 -17 -20 -7 0 -14 9 -17 20 -7
27 -17 25 -47 -6 -29 -32 -64 -28 -47 5 8 14 7 22 -5 31 -12 11 -17 10 -29 -6
-8 -10 -15 -22 -15 -26 -1 -20 -69 -6 -96 18 -27 26 -29 26 -57 11 -22 -13
-32 -14 -47 -5 -15 10 -24 9 -45 -2 -25 -14 -28 -13 -47 13 -24 34 -36 34 -48
2 -12 -32 -45 -33 -97 -4 -29 16 -41 19 -55 10 -22 -14 -41 -14 -54 -1 -17 17
-324 21 -356 4z m-243 -54 c3 -5 1 -10 -4 -10 -6 0 -11 5 -11 10 0 6 2 10 4
10 3 0 8 -4 11 -10z m-2635 -760 c0 -11 -4 -20 -10 -20 -5 0 -10 9 -10 20 0
11 5 20 10 20 6 0 10 -9 10 -20z m-2200 -2570 c0 -5 -4 -10 -10 -10 -5 0 -10
5 -10 10 0 6 5 10 10 10 6 0 10 -4 10 -10z m7188 -1405 c1 -16 5 -47 8 -67 3
-21 2 -46 -2 -55 -8 -17 -14 -149 -15 -297 0 -33 -3 -65 -8 -70 -4 -6 -7 -36
-5 -66 5 -140 15 -255 23 -264 4 -6 7 -32 5 -59 -1 -35 3 -51 16 -60 12 -8 17
-26 17 -60 0 -26 5 -53 11 -59 7 -7 12 -20 12 -29 0 -9 6 -22 13 -28 8 -6 15
-32 15 -57 1 -25 5 -51 9 -58 4 -6 11 -33 15 -61 16 -109 21 -130 28 -140 4
-5 19 -49 34 -96 14 -48 32 -92 40 -98 8 -6 17 -27 20 -45 8 -43 27 -57 96
-70 3 -1 11 -5 18 -10 25 -15 -3 -30 -35 -19 -79 28 -108 34 -138 29 -20 -4
-52 0 -80 10 -88 29 -536 36 -589 9 -20 -11 -33 -12 -47 -5 -13 8 -29 6 -55
-5 -20 -8 -59 -15 -86 -15 -50 0 -135 -17 -153 -30 -5 -5 -50 -20 -100 -35
-49 -15 -106 -36 -125 -45 -19 -10 -55 -26 -80 -36 -25 -10 -56 -26 -69 -36
-13 -10 -28 -18 -33 -18 -13 0 -87 -49 -143 -95 -27 -23 -72 -56 -98 -74 -27
-18 -53 -43 -59 -56 -6 -13 -24 -29 -39 -36 -16 -6 -29 -15 -29 -19 0 -4 -27
-37 -59 -74 -77 -84 -80 -90 -87 -180 -5 -64 -3 -76 9 -76 23 0 76 -33 79 -49
4 -19 86 -43 109 -30 10 5 26 9 36 9 10 0 78 59 152 130 73 72 139 130 145
130 7 0 23 12 37 26 32 34 106 84 125 84 23 0 111 48 126 69 7 10 30 21 53 24
72 10 121 23 169 46 32 16 50 20 59 13 7 -5 21 -6 32 -1 11 4 35 8 53 8 18 1
59 9 92 18 52 14 69 15 123 4 78 -16 241 -23 270 -12 15 6 34 4 56 -5 18 -8
44 -11 57 -8 13 4 30 2 37 -4 20 -16 176 -25 193 -11 11 9 19 7 39 -15 21 -22
31 -26 58 -21 20 4 43 1 62 -9 17 -9 46 -16 66 -16 20 0 42 -7 49 -15 15 -18
101 -21 131 -4 11 5 48 15 82 20 34 6 66 14 72 18 5 4 31 15 58 25 52 20 60
42 33 94 -20 38 -94 106 -141 130 -22 11 -51 32 -64 46 -23 24 -23 26 -5 26
33 0 244 -73 299 -103 17 -9 55 -28 85 -43 30 -15 64 -35 75 -44 11 -10 54
-32 95 -50 41 -18 82 -38 90 -45 8 -7 33 -17 55 -21 22 -4 53 -15 70 -26 16
-10 37 -18 45 -18 8 0 26 -9 40 -20 14 -11 31 -20 38 -20 7 0 32 -15 55 -32
75 -59 81 -68 46 -68 -22 0 -23 -13 -3 -109 6 -29 4 -33 -10 -28 -11 4 -19 1
-22 -11 -3 -9 -10 -26 -14 -37 -5 -11 -11 -32 -14 -47 -5 -22 -3 -26 9 -22 17
7 22 -21 5 -31 -5 -3 -7 -12 -4 -19 3 -7 -2 -44 -11 -81 -12 -52 -13 -71 -4
-82 9 -10 9 -19 -1 -37 -7 -13 -10 -29 -6 -34 3 -5 -1 -15 -9 -22 -8 -7 -12
-17 -9 -22 3 -5 -4 -12 -16 -15 -22 -6 -22 -7 -4 -20 15 -11 17 -18 8 -42 -9
-21 -8 -34 2 -52 20 -35 18 -51 -6 -44 -31 10 -38 -36 -11 -74 20 -28 20 -30
4 -39 -15 -9 -15 -14 -5 -38 11 -22 11 -29 0 -36 -10 -6 -8 -12 8 -26 16 -14
21 -28 19 -58 -2 -21 -6 -47 -10 -56 -5 -13 -1 -20 18 -27 29 -11 37 -36 30
-90 -5 -33 -2 -40 15 -45 16 -6 20 -14 19 -41 -2 -19 -6 -37 -10 -41 -13 -13
-7 -41 13 -59 11 -10 20 -28 20 -40 0 -13 7 -28 15 -35 8 -7 15 -21 15 -32 0
-10 6 -21 14 -24 8 -3 16 -17 19 -32 8 -39 61 -114 93 -132 18 -11 33 -32 44
-64 12 -38 23 -51 48 -62 33 -13 41 -29 20 -36 -19 -7 -1 -38 22 -38 11 0 20
-5 20 -12 0 -24 34 -48 67 -48 18 0 33 -4 33 -10 0 -5 -9 -10 -20 -10 -11 0
-20 -6 -20 -13 0 -19 20 -36 36 -30 8 3 14 0 14 -6 0 -6 15 -14 33 -19 29 -8
32 -12 29 -40 -3 -33 6 -40 25 -21 8 8 15 6 25 -10 8 -13 23 -21 40 -21 15 0
30 -4 33 -10 3 -5 17 -10 30 -10 13 0 27 -4 30 -10 3 -5 15 -10 27 -10 18 0
19 4 13 53 -4 28 -11 57 -17 64 -5 6 -6 22 -3 36 4 15 -1 43 -12 69 -14 34
-18 66 -16 158 1 63 2 122 3 130 0 8 -2 27 -5 41 -5 18 -1 31 12 44 10 10 18
22 18 26 0 4 3 11 8 15 13 13 7 44 -8 44 -19 0 -19 5 1 35 9 14 13 33 9 45 -4
14 -2 20 8 20 8 0 20 7 28 16 10 13 10 17 -2 24 -12 8 -12 13 -1 31 9 14 13
44 11 83 -3 52 0 67 21 96 18 25 24 45 22 78 -1 36 2 45 18 49 11 3 20 11 20
18 0 6 9 20 20 30 11 10 20 30 20 45 0 18 14 42 44 72 24 26 47 56 51 67 3 11
26 41 51 67 24 26 44 50 44 54 0 4 11 13 25 20 14 7 25 22 25 32 0 18 9 22 43
19 12 -2 17 5 17 24 0 25 28 45 71 50 9 1 30 11 46 23 17 12 41 22 52 22 12 0
30 9 41 20 12 12 33 20 53 20 18 0 38 5 44 11 6 6 51 13 99 15 48 2 90 8 93
12 3 5 31 14 61 21 41 10 62 10 84 2 30 -12 92 -5 113 11 9 7 18 5 29 -6 11
-12 31 -16 65 -15 26 2 54 -2 61 -8 7 -6 38 -13 68 -17 30 -4 83 -21 118 -37
35 -17 77 -32 93 -34 37 -5 49 -12 49 -30 0 -17 55 -45 87 -45 16 0 27 -7 30
-19 2 -10 16 -23 29 -30 13 -6 36 -29 51 -51 17 -25 39 -43 55 -46 20 -5 30
-16 38 -40 7 -19 20 -39 31 -45 11 -5 24 -21 29 -35 6 -14 17 -24 30 -24 15 0
20 -7 20 -29 0 -19 8 -36 23 -48 12 -10 27 -30 34 -45 7 -15 27 -44 46 -65 22
-24 36 -53 40 -78 4 -25 16 -48 30 -60 17 -14 27 -35 32 -70 3 -27 13 -60 21
-73 17 -27 21 -41 35 -132 5 -36 14 -80 19 -99 6 -22 5 -51 -1 -83 -8 -34 -8
-58 0 -80 16 -44 14 -94 -5 -130 -9 -17 -16 -51 -16 -77 0 -25 -5 -52 -11 -58
-6 -9 -5 -20 6 -36 13 -20 13 -26 1 -42 -8 -10 -14 -29 -14 -41 0 -12 -9 -33
-21 -47 -11 -15 -21 -42 -22 -61 -2 -19 -6 -38 -10 -42 -4 -4 -7 -22 -7 -41 0
-18 -4 -33 -10 -33 -5 0 -10 -10 -10 -23 0 -13 -13 -34 -31 -50 -23 -19 -29
-32 -24 -47 4 -14 2 -20 -7 -18 -9 2 -15 -12 -18 -42 -4 -33 -10 -46 -23 -48
-28 -5 -57 -34 -57 -55 0 -9 -7 -20 -15 -23 -8 -4 -15 -11 -15 -18 0 -6 -9
-19 -20 -29 -11 -9 -20 -23 -20 -30 0 -8 -9 -22 -20 -32 -11 -10 -20 -24 -20
-32 0 -7 -16 -23 -35 -34 -19 -12 -35 -25 -35 -31 0 -10 -69 -78 -80 -78 -13
0 -60 -56 -60 -72 0 -9 -17 -24 -37 -33 -21 -10 -41 -23 -45 -28 -3 -6 -14
-12 -24 -13 -9 -2 -36 -21 -58 -43 -23 -23 -49 -41 -58 -41 -10 0 -29 -16 -44
-35 -14 -19 -33 -35 -42 -35 -8 0 -36 -17 -61 -37 -25 -21 -48 -37 -52 -36 -3
1 -30 -13 -60 -31 -41 -24 -55 -39 -57 -59 -3 -25 -7 -27 -50 -27 -32 0 -60
-8 -87 -24 -22 -14 -77 -43 -122 -66 -46 -23 -83 -46 -83 -51 0 -5 -10 -9 -22
-9 -12 0 -18 -3 -15 -6 15 -16 -15 -44 -46 -44 -18 0 -39 -6 -46 -13 -7 -6
-28 -12 -48 -12 -35 0 -35 0 -53 -65 -10 -36 -23 -78 -30 -95 -7 -16 -14 -54
-16 -84 -2 -30 -10 -61 -19 -70 -8 -10 -15 -27 -15 -39 0 -12 -4 -22 -10 -22
-5 0 -12 -17 -15 -37 -3 -21 -15 -65 -26 -98 -11 -33 -25 -80 -31 -105 -5 -25
-14 -61 -19 -80 -5 -19 -11 -52 -12 -72 -3 -26 -12 -44 -29 -58 -24 -18 -58
-94 -58 -128 0 -9 -7 -23 -15 -32 -8 -9 -16 -36 -17 -60 -1 -30 -8 -49 -25
-66 -13 -13 -26 -37 -29 -53 -4 -17 -15 -38 -25 -47 -11 -9 -19 -24 -19 -33 0
-9 -9 -29 -20 -46 -11 -17 -20 -47 -20 -68 0 -28 -6 -44 -22 -57 -21 -17 -22
-21 -9 -41 12 -20 11 -24 -3 -34 -60 -44 -66 -51 -66 -77 0 -14 -4 -28 -8 -30
-14 -5 -82 -104 -82 -118 0 -7 -15 -36 -34 -64 -18 -28 -37 -67 -41 -86 -4
-19 -21 -48 -37 -63 -25 -23 -29 -33 -24 -57 5 -25 2 -30 -14 -30 -12 0 -22
-9 -26 -24 -3 -14 -17 -32 -30 -41 -13 -8 -24 -24 -24 -34 0 -10 -7 -25 -17
-32 -9 -8 -24 -32 -34 -54 -10 -22 -29 -51 -43 -65 -15 -13 -26 -28 -26 -34 0
-6 -9 -17 -20 -24 -11 -7 -20 -21 -20 -31 0 -11 -13 -29 -30 -41 -16 -12 -30
-27 -30 -35 0 -26 -48 -97 -80 -116 -24 -15 -31 -25 -27 -40 4 -15 -1 -23 -19
-29 -25 -10 -34 -40 -11 -40 8 -1 7 -5 -4 -13 -8 -7 -18 -20 -22 -29 -3 -10
-15 -18 -26 -18 -35 0 -50 -11 -71 -54 -11 -24 -31 -49 -45 -56 -14 -7 -27
-21 -30 -31 -3 -9 -48 -60 -100 -113 -52 -53 -95 -103 -95 -111 0 -8 -7 -15
-16 -15 -13 0 -109 -91 -147 -140 -7 -9 -22 -20 -34 -25 -12 -6 -48 -35 -80
-65 -32 -31 -77 -70 -100 -88 -23 -18 -43 -42 -45 -54 -2 -16 -12 -24 -38 -29
-19 -4 -44 -19 -56 -33 -12 -13 -45 -37 -73 -52 -28 -14 -60 -37 -70 -50 -10
-13 -25 -24 -31 -24 -7 0 -29 -12 -48 -26 -19 -15 -55 -38 -81 -51 -25 -14
-53 -32 -61 -42 -18 -22 -143 -91 -163 -91 -8 0 -22 -11 -31 -25 -9 -14 -23
-25 -31 -25 -28 0 -141 -54 -160 -76 -12 -13 -30 -24 -42 -24 -12 0 -25 -5
-28 -10 -3 -5 -14 -10 -23 -10 -9 0 -28 -9 -42 -20 -14 -11 -34 -20 -45 -20
-11 0 -37 -14 -57 -30 -31 -26 -40 -29 -55 -19 -15 9 -27 7 -58 -10 -22 -11
-45 -21 -52 -21 -7 0 -21 -10 -32 -21 -14 -15 -27 -20 -44 -15 -16 4 -29 0
-37 -9 -7 -8 -27 -15 -45 -15 -18 0 -63 -14 -100 -30 -37 -17 -84 -30 -105
-30 -22 0 -42 -5 -45 -10 -3 -6 -1 -10 4 -10 6 0 11 -4 11 -10 0 -15 -21 -12
-40 5 -14 13 -27 12 -110 -6 -179 -39 -195 -41 -283 -42 -54 -1 -90 -6 -95
-14 -5 -8 -71 -11 -233 -11 -124 0 -236 -3 -248 -7 -12 -4 -28 -2 -36 5 -8 6
-19 9 -25 5 -6 -4 -17 -1 -25 5 -8 6 -49 13 -92 15 -153 7 -355 36 -452 66
-37 12 -76 17 -92 14 -15 -3 -30 -1 -34 4 -3 6 -17 11 -31 11 -14 0 -42 9 -63
20 -21 10 -65 23 -98 29 -32 5 -76 17 -98 27 -22 9 -53 23 -70 30 -16 7 -51
22 -77 33 -26 12 -54 21 -62 21 -7 0 -19 7 -26 15 -7 8 -25 15 -39 15 -15 0
-36 7 -47 15 -10 8 -25 15 -32 15 -8 0 -26 8 -40 18 -15 10 -43 25 -62 32 -19
7 -44 22 -56 32 -11 10 -24 18 -30 18 -5 0 -20 9 -34 20 -14 11 -37 20 -51 20
-14 0 -35 11 -46 24 -12 13 -35 27 -52 31 -17 4 -31 10 -31 15 0 16 -87 59
-108 54 -16 -5 -24 1 -36 25 -9 17 -22 31 -29 31 -7 0 -31 18 -52 40 -23 24
-48 40 -62 40 -13 0 -26 6 -29 14 -3 8 -35 33 -71 56 -35 23 -95 69 -131 101
-36 33 -72 59 -78 59 -6 0 -19 11 -27 24 -9 13 -68 67 -131 120 -64 54 -116
101 -116 107 0 5 -50 60 -111 123 -60 63 -121 129 -135 147 -13 19 -33 38 -42
44 -27 15 -118 123 -164 193 -25 38 -68 90 -104 127 -18 17 -39 46 -48 63 -9
18 -21 32 -26 32 -6 0 -17 18 -26 40 -9 22 -29 50 -45 61 -16 11 -29 29 -29
39 0 10 -20 40 -44 67 -25 27 -48 62 -53 79 -13 47 -66 133 -85 140 -10 3 -18
14 -18 25 0 25 -27 79 -40 79 -9 0 -33 46 -44 86 -4 12 -27 40 -51 63 -33 31
-45 50 -45 71 0 16 -4 32 -10 35 -5 3 -10 16 -10 29 0 12 -4 26 -9 32 -15 15
-101 184 -101 197 0 7 -10 28 -23 47 -12 19 -29 53 -36 75 -7 22 -26 66 -42
98 -16 32 -29 64 -29 72 0 8 -9 20 -20 28 -12 8 -24 33 -29 63 -5 27 -17 63
-25 79 -9 17 -16 35 -16 41 0 6 -7 17 -15 24 -8 7 -15 25 -15 41 0 15 -4 31
-10 34 -5 3 -10 15 -10 26 0 18 -37 108 -49 119 -3 3 -7 21 -8 41 -1 21 -13
59 -27 85 -14 27 -26 61 -26 77 0 26 -30 128 -49 165 -12 25 -41 146 -41 174
0 13 -4 28 -8 34 -12 13 -32 87 -32 117 0 15 -9 32 -21 41 -12 8 -19 18 -16
23 5 9 -1 55 -23 178 -5 28 -12 66 -15 85 -4 19 -11 45 -17 57 -6 12 -8 29 -4
38 3 9 -1 31 -9 48 -8 18 -17 61 -19 97 -5 81 -15 149 -26 175 -5 11 -11 45
-14 75 -11 104 -12 116 -20 129 -4 6 -10 60 -12 119 -3 59 -9 134 -14 167 -6
33 -13 132 -17 220 -7 141 -8 223 -5 410 0 28 1 70 1 95 0 257 17 766 26 780
4 6 8 53 9 103 1 51 4 97 8 102 3 6 11 44 17 85 10 65 16 78 44 102 17 15 37
28 43 28 6 0 31 17 55 38 40 34 160 112 231 149 15 8 30 19 34 24 3 6 29 20
57 33 29 13 61 33 71 45 11 11 28 21 38 21 29 0 73 26 92 54 12 19 25 26 50
26 18 0 55 12 82 26 27 15 60 33 74 40 36 20 40 18 40 -24 0 -42 30 -77 84
-101 38 -16 133 -5 163 19 13 10 40 21 60 25 20 4 48 15 61 26 14 10 37 19 52
19 14 0 47 14 73 31 25 16 63 32 84 35 21 3 54 11 73 18 97 36 231 66 295 66
24 0 46 4 49 8 8 13 347 14 378 1 24 -10 32 -9 49 7 19 17 23 17 87 1 37 -9
85 -17 107 -17 22 -1 49 -7 59 -15 11 -8 29 -15 40 -15 31 -1 205 -45 250 -64
21 -9 47 -16 59 -16 11 0 35 -9 53 -21 18 -11 61 -31 94 -44 34 -13 88 -42
120 -64 33 -23 65 -41 72 -41 7 0 24 -9 38 -20 14 -11 31 -20 38 -20 7 0 15
-7 18 -15 3 -8 28 -28 55 -46 27 -17 59 -44 70 -61 65 -90 141 -133 233 -131
82 3 146 63 146 139 0 27 -61 134 -104 183 -78 86 -214 206 -255 224 -14 6
-44 26 -66 43 -39 31 -222 124 -244 124 -6 0 -27 10 -48 21 -74 42 -230 90
-481 149 -23 5 -76 10 -118 10 -41 0 -84 5 -95 11 -28 15 -386 14 -404 -1 -11
-9 -19 -8 -37 4 -12 9 -34 16 -49 16 -35 0 -39 13 -47 145 -11 218 1 467 33
670 9 55 17 116 18 135 2 19 8 51 14 70 12 36 47 188 59 250 3 19 12 42 19 50
6 8 18 38 25 65 7 28 21 61 30 75 10 14 20 35 24 46 4 12 15 29 26 39 11 10
20 24 20 31 0 7 3 14 8 16 4 2 30 34 57 71 41 57 54 67 75 65 21 -3 25 -8 22
-33 -1 -16 3 -40 10 -52 9 -19 8 -26 -7 -43 -17 -19 -37 -135 -49 -280 -1 -19
-6 -47 -10 -63 -5 -18 -4 -32 4 -42 10 -12 10 -21 0 -45 -7 -17 -10 -44 -6
-63 4 -24 2 -38 -7 -46 -9 -7 -15 -32 -15 -67 0 -30 -6 -62 -13 -70 -9 -11
-10 -45 -4 -137 4 -67 8 -140 9 -162 1 -22 5 -45 9 -52 4 -6 2 -15 -4 -19 -9
-5 -6 -11 7 -21 15 -11 16 -17 7 -32 -9 -14 -9 -21 0 -30 8 -8 7 -15 -5 -27
-14 -15 -15 -20 -1 -52 8 -20 23 -47 33 -59 11 -14 16 -32 13 -44 -4 -14 0
-25 11 -31 9 -5 16 -15 16 -22 0 -7 17 -25 38 -40 42 -29 45 -29 272 -6 52 6
128 8 168 6 41 -2 75 1 78 6 4 6 24 7 47 4 27 -5 47 -2 62 8 30 20 206 39 291
32 53 -5 80 -3 108 9 29 12 45 14 66 6 16 -5 31 -7 34 -4 6 6 131 24 196 27
25 2 106 8 180 13 160 13 142 12 350 17 430 12 732 0 857 -33 21 -6 54 -10 73
-9 19 0 103 -4 185 -10 83 -7 177 -14 210 -16 65 -5 161 -20 185 -30 9 -4 23
-1 33 6 15 12 15 21 6 83 -6 39 -11 165 -12 280 0 184 2 219 21 285 11 41 24
104 27 140 4 36 16 96 26 135 11 38 19 86 19 106 0 22 7 42 18 52 12 11 17 27
14 45 -2 18 2 33 12 41 9 8 16 27 16 43 0 16 7 43 16 60 9 17 13 39 11 50 -3
11 0 21 9 25 8 3 22 19 30 36 9 16 29 41 45 54 16 14 29 30 29 37 0 7 9 21 20
31 11 10 31 38 46 62 21 37 30 44 52 41 22 -2 27 -9 30 -33z m6152 -115 c0 -5
-4 -10 -10 -10 -5 0 -10 5 -10 10 0 6 5 10 10 10 6 0 10 -4 10 -10z m-5755
-1640 c3 -5 22 -10 41 -10 46 0 44 -16 -3 -17 -32 -1 -63 14 -63 31 0 10 18 7
25 -4z m179 -61 c-3 -5 -10 -7 -15 -3 -5 3 -7 10 -3 15 3 5 10 7 15 3 5 -3 7
-10 3 -15z m2826 -4019 c0 -5 -2 -10 -4 -10 -3 0 -8 5 -11 10 -3 6 -1 10 4 10
6 0 11 -4 11 -10z"/>
        <path d="M9060 11740 c-8 -5 -27 -10 -42 -10 -54 0 -198 -153 -198 -210 0 -11
-9 -35 -20 -55 -11 -20 -20 -46 -20 -60 0 -13 -4 -27 -10 -30 -5 -3 -10 -17
-10 -30 0 -13 -4 -27 -10 -30 -5 -3 -10 -30 -10 -59 0 -28 -4 -56 -9 -62 -7
-7 -23 -213 -20 -259 1 -5 2 -47 4 -92 1 -45 6 -90 10 -100 5 -10 12 -47 16
-83 12 -101 20 -140 30 -146 5 -3 9 -16 9 -29 0 -13 5 -27 10 -30 6 -3 10 -14
10 -25 0 -18 40 -100 74 -152 9 -15 31 -31 47 -37 16 -5 32 -18 35 -28 15 -43
142 -142 164 -128 5 3 20 0 34 -6 35 -16 122 3 176 38 53 35 94 98 94 146 1
24 7 43 18 51 10 7 17 26 17 42 0 16 2 54 5 84 7 65 8 289 2 341 -2 20 -9 47
-16 59 -9 16 -9 25 0 36 7 8 10 25 6 41 -4 16 -9 62 -12 103 -4 47 -11 81 -21
92 -10 11 -13 26 -9 42 3 14 2 28 -4 31 -5 3 -10 17 -10 31 0 14 -7 35 -15 48
-25 38 -2 70 34 47 9 -6 22 -6 35 1 15 8 21 8 24 -1 2 -6 12 -11 21 -11 10 0
30 -11 45 -25 15 -14 33 -25 40 -25 8 0 19 -7 26 -15 7 -8 22 -15 34 -15 12 0
37 -13 56 -30 19 -16 45 -29 58 -30 12 0 25 -7 28 -15 3 -8 25 -19 48 -25 22
-6 53 -17 68 -25 14 -8 36 -15 47 -15 14 0 21 -6 21 -20 0 -15 7 -20 24 -20
14 0 28 -4 31 -10 3 -5 24 -10 45 -10 34 0 42 -4 55 -30 11 -21 23 -30 40 -30
13 0 46 -13 72 -30 33 -21 59 -30 89 -30 34 0 44 -4 49 -20 5 -15 12 -19 26
-15 11 4 19 2 19 -5 0 -20 28 -40 54 -40 32 0 64 -17 89 -48 14 -17 26 -22 42
-18 14 4 32 -2 48 -14 14 -11 39 -20 55 -20 21 0 31 -6 35 -20 5 -20 37 -29
37 -10 0 6 5 10 10 10 6 0 10 -9 10 -20 0 -22 16 -27 23 -7 4 10 7 10 18 0 7
-7 25 -13 41 -13 17 0 31 -7 38 -20 9 -17 19 -19 81 -16 38 2 75 8 81 14 5 5
13 40 15 76 3 37 10 69 14 72 5 3 9 22 9 43 0 47 -27 74 -96 94 -49 14 -134
53 -144 66 -13 16 -101 51 -129 51 -21 0 -39 9 -57 29 -17 19 -32 27 -45 24
-13 -4 -28 4 -44 21 -13 14 -35 26 -48 26 -26 0 -48 10 -112 51 -59 38 -243
123 -290 134 -16 3 -39 14 -50 24 -23 20 -37 28 -187 100 -59 29 -110 56 -113
61 -4 6 -17 10 -30 10 -14 0 -40 9 -60 20 -20 11 -44 20 -54 20 -10 0 -24 7
-31 15 -18 21 -86 52 -135 60 -22 4 -48 15 -58 23 -20 18 -151 62 -184 62 -12
0 -25 5 -28 10 -4 6 -23 10 -43 10 -20 -1 -53 2 -72 5 -19 3 -42 1 -50 -5z"/>
        <path d="M12680 11659 c-23 -11 -48 -19 -55 -19 -15 0 -105 -78 -105 -91 0 -5
-15 -32 -33 -61 -49 -78 -107 -206 -107 -237 0 -15 -4 -31 -9 -37 -10 -9 -37
-98 -52 -174 -15 -69 -28 -322 -24 -442 3 -96 13 -155 35 -213 4 -11 13 -38
20 -60 41 -128 96 -199 191 -247 65 -33 84 -38 143 -38 37 0 76 5 87 11 32 17
122 116 137 152 27 62 55 173 58 232 2 33 9 87 15 120 9 45 9 103 1 235 -6 96
-13 207 -15 245 -2 39 -10 109 -17 158 -7 48 -10 90 -6 94 9 10 126 -15 153
-33 12 -8 31 -14 41 -14 22 0 98 -36 107 -50 3 -5 18 -10 33 -10 15 -1 38 -7
52 -15 14 -8 33 -14 43 -15 10 0 30 -9 45 -19 15 -11 45 -22 67 -26 22 -4 48
-14 58 -23 15 -13 23 -14 48 -5 26 10 33 8 70 -23 22 -19 49 -34 59 -34 11 0
22 -4 25 -10 3 -5 21 -10 40 -10 18 0 35 -5 37 -10 2 -6 21 -13 43 -16 22 -3
49 -9 60 -14 63 -26 108 -40 129 -40 12 0 31 -9 42 -21 13 -15 26 -19 45 -15
17 3 32 0 39 -9 8 -10 31 -15 64 -15 30 0 60 -6 72 -15 10 -8 27 -15 37 -15
11 0 31 -7 45 -14 68 -37 117 -53 142 -44 32 10 57 59 63 118 3 25 10 59 17
77 20 55 10 83 -35 99 -22 7 -52 14 -66 14 -15 0 -32 7 -39 15 -7 8 -27 15
-44 15 -17 0 -51 9 -75 20 -24 11 -52 20 -62 20 -11 0 -38 9 -60 21 -22 11
-46 18 -52 16 -7 -2 -23 4 -36 14 -13 11 -40 19 -61 19 -21 0 -63 12 -94 26
-31 14 -60 22 -66 19 -6 -4 -32 3 -58 15 -75 35 -85 38 -123 43 -20 3 -65 19
-99 36 -34 17 -69 31 -77 31 -8 0 -52 17 -96 39 -45 21 -93 42 -107 46 -14 3
-38 12 -55 19 -45 20 -94 36 -152 50 -29 8 -59 18 -66 24 -7 6 -32 14 -55 18
-23 3 -47 13 -53 20 -6 8 -30 14 -52 14 -22 0 -68 9 -101 20 -34 11 -73 24
-88 29 -19 6 -38 3 -68 -10z"/>
        <path d="M11429 11526 c-4 -12 -18 -75 -29 -141 -11 -66 -29 -174 -41 -239
-11 -66 -33 -178 -49 -250 -16 -72 -34 -153 -41 -181 -6 -27 -19 -72 -28 -100
-10 -27 -33 -95 -50 -150 -18 -55 -36 -108 -42 -117 -5 -10 -9 -22 -9 -27 0
-10 -99 -250 -131 -317 -10 -23 -19 -48 -19 -55 0 -8 -7 -24 -15 -35 -22 -33
-52 -119 -69 -204 -10 -47 -18 -77 -27 -92 -6 -12 -5 -24 2 -36 8 -13 7 -27
-5 -56 -12 -30 -16 -75 -16 -202 0 -103 4 -164 10 -164 6 0 10 -17 10 -39 0
-21 7 -55 15 -74 8 -20 15 -49 15 -65 0 -15 14 -49 30 -75 17 -26 30 -58 30
-71 0 -13 7 -29 16 -36 8 -8 21 -28 29 -47 8 -18 19 -33 24 -33 6 0 11 -6 11
-14 0 -18 122 -146 139 -146 7 0 25 -9 39 -21 83 -63 106 -79 116 -79 7 0 36
-16 66 -35 30 -19 61 -33 68 -30 8 3 26 -4 42 -15 15 -11 39 -20 52 -20 13 0
66 -9 117 -20 122 -27 170 -21 211 27 21 24 29 41 25 54 -4 11 -1 26 5 34 15
18 9 66 -10 76 -8 4 -34 12 -57 18 -27 8 -44 19 -48 32 -9 28 -55 45 -145 53
-141 13 -222 55 -339 175 -76 78 -111 130 -137 204 -8 22 -21 48 -28 57 -31
36 -40 180 -21 336 16 127 36 194 91 311 24 51 44 100 44 109 0 10 8 27 19 38
10 12 26 48 36 81 10 33 22 65 26 70 12 17 49 128 49 150 0 11 7 30 15 43 9
12 21 50 26 84 6 35 19 81 29 103 9 22 21 60 25 85 4 25 13 67 21 94 8 27 14
64 14 82 0 18 5 36 10 39 6 3 10 25 10 49 0 23 4 46 8 52 8 8 28 102 38 174 2
14 8 57 14 95 6 39 12 84 14 100 2 17 8 71 15 120 17 142 15 162 -19 197 -16
16 -30 37 -30 46 0 14 -12 17 -81 18 -73 1 -82 -1 -90 -20z"/>
        <path d="M12635 7321 c-46 -17 -94 -41 -100 -51 -3 -6 -25 -20 -47 -33 -22
-12 -51 -28 -64 -35 -13 -7 -24 -17 -24 -22 0 -5 -15 -17 -32 -26 -18 -9 -51
-33 -73 -54 -22 -21 -53 -41 -70 -45 -16 -3 -43 -13 -60 -20 -55 -24 -88 -27
-325 -30 -259 -3 -286 -8 -347 -64 -110 -101 -83 -297 56 -409 70 -56 274
-140 366 -149 28 -3 58 -9 67 -14 22 -12 209 -11 228 1 9 5 19 5 27 -1 8 -7
18 -7 32 0 11 6 41 11 68 11 26 1 59 7 73 15 14 8 34 14 46 15 55 1 233 116
322 208 76 79 148 199 182 307 16 48 15 216 0 246 -7 11 -18 28 -26 37 -8 9
-28 33 -44 53 -23 28 -42 39 -82 49 -68 15 -147 21 -173 11z"/>
        <path d="M10460 19590 c0 -5 7 -10 15 -10 8 0 15 5 15 10 0 6 -7 10 -15 10 -8
0 -15 -4 -15 -10z"/>
    </g>
</svg>
